<svg xmlns="http://www.w3.org/2000/svg" data-name="Layer 1" viewBox="0 0 100 125" x="0px" y="0px"><path d="M58.25,45.64l-2.76,2.47L56,49.2c7.17,14.91,5.43,29.94-3.88,33.55S29.49,77.19,22.33,62.27s-5.42-29.94,3.89-33.55c7-2.71,16.23,1.76,23.43,10.47l2.79-2.5C43.29,25.19,30.82,19.26,21.28,23,9.13,27.67,6.36,46.26,15.1,64.47S40.79,93.62,53,88.9s14.92-23.3,6.18-41.51C58.84,46.8,58.55,46.21,58.25,45.64Z"/><path d="M34.16,41.33c2.83-1.09,6.43.24,9.59,3.16l3-2.69C41.53,36,35.1,33.12,30.18,35,23.27,37.71,22,48.88,27.3,60S42.56,77.89,49.48,75.2s8.17-13.54,3.11-24.48l-3,2.71c2.38,6.51,1.3,12.64-2.79,14.23-4.54,1.76-11-2.7-14.54-10S29.62,43.09,34.16,41.33Z"/><polygon points="78.54 18.97 81.66 16.16 80.76 10 70.21 19.48 71.1 25.65 78.54 18.97"/><polygon points="83.14 17.66 76.81 23.36 72.78 26.98 79.63 27.79 90 18.47 83.14 17.66"/><path d="M70.07,28.76l-.09,0h0l-.11-.07-.14-.08-.1-.09-.1-.11-.07-.12a.83.83,0,0,1-.07-.13.21.21,0,0,1,0-.06s0-.06,0-.08a.24.24,0,0,0,0-.08L69,26.16,43.21,49.38c-2-2.61-4.29-4.07-5.9-3.44-2.15.83-2.18,5.06-.08,9.45s5.56,7.27,7.71,6.43,2.16-4.58.41-8.69L72.15,29l-1.93-.23Z"/><text x="0" y="115" fill="#000000" font-size="5px" font-weight="bold" font-family="'Helvetica Neue', Helvetica, Arial-Unicode, Arial, Sans-serif">Created by M. Tohirin</text><text x="0" y="120" fill="#000000" font-size="5px" font-weight="bold" font-family="'Helvetica Neue', Helvetica, Arial-Unicode, Arial, Sans-serif">from the Noun Project</text></svg>