<!-- <svg width="256" height="256" viewBox="0 0 256 256" xmlns="http://www.w3.org/2000/svg">
  <circle cx="128" cy="128" r="120" fill="#1e1e2f"/>
  <circle cx="128" cy="128" r="48" fill="#3e3e8f"/>
  <text x="128" y="144" font-size="64" text-anchor="middle" fill="#a8a8ff" font-family="Arial, sans-serif">#</text>
  <path d="M60 80c20-20 100-20 120 0" stroke="#2e2e4f" stroke-width="4" fill="none"/>
  <path d="M60 176c20 20 100 20 120 0" stroke="#2e2e4f" stroke-width="4" fill="none"/>
</svg> -->
<svg xmlns="http://www.w3.org/2000/svg" width="256" height="256" viewBox="0 0 256 256">
  <circle cx="128" cy="128" r="100" fill="#e0b43b"/>
  <path d="M 213 128 A 85 85 0 1 0 43 128" fill="none" stroke="#c89f2a" stroke-width="4"/>
  <path d="M 198 128 A 70 70 0 1 0 58 128" fill="none" stroke="#c89f2a" stroke-width="4"/>
  <path d="M 183 128 A 55 55 0 1 0 73 128" fill="none" stroke="#c89f2a" stroke-width="4"/>
  <circle cx="128" cy="128" r="40" fill="#4c3fb0"/>
  <text x="128" y="140" font-size="48" text-anchor="middle" fill="white" font-family="Arial, sans-serif">#</text>
</svg>